<svg width="115" height="157" viewBox="0 0 115 157" fill="none" xmlns="http://www.w3.org/2000/svg">
<path fill-rule="evenodd" clip-rule="evenodd" d="M68.7714 28.4397L17.9944 20.2683L-19.9991 55.2117L-16.5992 106.957L25.6338 136.539L74.8978 121.681L94.0958 73.5727L68.7714 28.4397ZM82.0926 13.6361C81.2053 12.0549 79.6525 10.9672 77.8736 10.6809L14.8241 0.534514C13.0451 0.248233 11.2338 0.794518 9.90269 2.01873L-37.2736 45.4077C-38.6047 46.6319 -39.3106 48.4008 -39.1915 50.2137L-34.9698 114.465C-34.8507 116.278 -33.9196 117.938 -32.44 118.974L20.0006 155.705C21.4802 156.742 23.3472 157.042 25.0731 156.522L86.2438 138.073C87.9697 137.553 89.3667 136.268 90.0393 134.583L113.877 74.8467C114.55 73.1612 114.425 71.2586 113.538 69.6774L82.0926 13.6361Z" fill="white" fill-opacity="0.13"/>
</svg>
