<svg width="136" height="135" viewBox="0 0 136 135" fill="none" xmlns="http://www.w3.org/2000/svg">
<path opacity="0.1" fill-rule="evenodd" clip-rule="evenodd" d="M87.7087 38.504L55.6151 33.383L31.6014 55.2818L33.7503 87.7103L60.4437 106.249L91.5809 96.938L103.715 66.7886L87.7087 38.504ZM96.1283 29.2266C95.5675 28.2357 94.5861 27.554 93.4617 27.3746L53.6114 21.0159C52.487 20.8365 51.3421 21.1789 50.5008 21.9461L20.6831 49.1377C19.8418 49.9049 19.3956 51.0135 19.4709 52.1496L22.1392 92.4158C22.2145 93.5519 22.803 94.5919 23.7382 95.2413L56.8832 118.261C57.8183 118.91 58.9984 119.099 60.0892 118.772L98.7521 107.211C99.843 106.885 100.726 106.079 101.151 105.023L116.218 67.587C116.643 66.5307 116.564 65.3384 116.003 64.3474L96.1283 29.2266Z" fill="#9162CD"/>
</svg>
