<svg width="216" height="216" viewBox="0 0 216 216" fill="none" xmlns="http://www.w3.org/2000/svg">
<path fill-rule="evenodd" clip-rule="evenodd" d="M139.956 61.4397L88.7451 53.2683L50.427 88.2117L53.8559 139.957L96.4498 169.539L146.135 154.681L165.497 106.573L139.956 61.4397ZM153.391 46.6361C152.496 45.0549 150.93 43.9672 149.136 43.6809L85.5477 33.5345C83.7536 33.2482 81.9267 33.7945 80.5843 35.0187L33.005 78.4077C31.6625 79.6319 30.9506 81.4008 31.0707 83.2137L35.3284 147.465C35.4485 149.278 36.3876 150.938 37.8799 151.974L90.7684 188.705C92.2607 189.742 94.1436 190.042 95.8843 189.522L157.578 171.073C159.318 170.553 160.727 169.268 161.405 167.583L185.447 107.847C186.125 106.161 185.999 104.259 185.105 102.677L153.391 46.6361Z" fill="white" fill-opacity="0.13"/>
</svg>
